<svg width="18" height="20" viewBox="0 0 18 20" fill="none" xmlns="http://www.w3.org/2000/svg">
<path d="M16.7338 15.3534C16.444 16.023 16.1009 16.6394 15.7034 17.2061C15.1615 17.9787 14.7178 18.5134 14.3759 18.8104C13.8459 19.2978 13.278 19.5474 12.6699 19.5616C12.2334 19.5616 11.7069 19.4374 11.094 19.1854C10.4792 18.9346 9.91414 18.8104 9.39749 18.8104C8.85563 18.8104 8.2745 18.9346 7.6529 19.1854C7.03036 19.4374 6.52884 19.5687 6.1454 19.5818C5.56226 19.6066 4.98101 19.3499 4.40082 18.8104C4.03051 18.4874 3.56733 17.9337 3.01246 17.1493C2.41713 16.3117 1.92768 15.3404 1.54424 14.233C1.13359 13.0369 0.927734 11.8787 0.927734 10.7573C0.927734 9.47284 1.20529 8.36499 1.76122 7.43662C2.19814 6.69092 2.77939 6.10268 3.50687 5.67086C4.23436 5.23903 5.0204 5.01897 5.86691 5.00489C6.33009 5.00489 6.93749 5.14817 7.6923 5.42974C8.44498 5.71227 8.92827 5.85554 9.14016 5.85554C9.29858 5.85554 9.83547 5.68801 10.7456 5.35402C11.6063 5.04429 12.3327 4.91604 12.9278 4.96656C14.5404 5.0967 15.7519 5.73238 16.5576 6.87761C15.1154 7.75144 14.402 8.97535 14.4162 10.5454C14.4292 11.7684 14.8728 12.7861 15.7448 13.5941C16.1399 13.9692 16.5812 14.259 17.0722 14.4649C16.9657 14.7737 16.8533 15.0694 16.7338 15.3534ZM13.0355 0.80019C13.0355 1.75874 12.6853 2.65374 11.9873 3.48214C11.1449 4.46694 10.126 5.03601 9.02115 4.94621C9.00707 4.83122 8.9989 4.71019 8.9989 4.583C8.9989 3.6628 9.3995 2.67799 10.1109 1.87278C10.4661 1.46509 10.9178 1.1261 11.4655 0.855677C12.0121 0.589292 12.5291 0.441975 13.0154 0.416748C13.0296 0.544891 13.0355 0.673043 13.0355 0.800178V0.80019Z" fill="white"/>
</svg>
