<svg width="21" height="21" viewBox="0 0 21 21" fill="none" xmlns="http://www.w3.org/2000/svg">
<path fill-rule="evenodd" clip-rule="evenodd" d="M20.1 10.7273C20.1 10.0182 20.0364 9.33643 19.9182 8.68188H10.5V12.5501H15.8818C15.65 13.8001 14.9455 14.8592 13.8864 15.5682V18.0773H17.1182C19.0091 16.3364 20.1 13.7728 20.1 10.7273Z" fill="#4285F4"/>
<path fill-rule="evenodd" clip-rule="evenodd" d="M10.5 20.4999C13.2 20.4999 15.4636 19.6044 17.1181 18.0772L13.8863 15.5681C12.9909 16.1681 11.8454 16.5226 10.5 16.5226C7.89542 16.5226 5.69087 14.7635 4.90451 12.3999H1.5636V14.9908C3.20905 18.259 6.59087 20.4999 10.5 20.4999Z" fill="#34A853"/>
<path fill-rule="evenodd" clip-rule="evenodd" d="M4.90455 12.3999C4.70455 11.7999 4.59091 11.159 4.59091 10.4999C4.59091 9.84085 4.70455 9.19994 4.90455 8.59994V6.00903H1.56364C0.886364 7.35903 0.5 8.88631 0.5 10.4999C0.5 12.1136 0.886364 13.6409 1.56364 14.9909L4.90455 12.3999Z" fill="#FBBC05"/>
<path fill-rule="evenodd" clip-rule="evenodd" d="M10.5 4.47727C11.9681 4.47727 13.2863 4.98182 14.3227 5.97273L17.1909 3.10455C15.4591 1.49091 13.1954 0.5 10.5 0.5C6.59087 0.5 3.20905 2.74091 1.5636 6.00909L4.90451 8.6C5.69087 6.23636 7.89542 4.47727 10.5 4.47727Z" fill="#EA4335"/>
</svg>
