<svg width="186" height="182" viewBox="0 0 186 182" fill="none" xmlns="http://www.w3.org/2000/svg">
<path d="M91.9221 2.47772C92.9789 0.231946 96.1503 0.167756 97.2971 2.36893L124.867 55.2851C125.269 56.0567 125.986 56.6158 126.833 56.8173L183.598 70.3329C185.81 70.8596 186.655 73.5595 185.138 75.2531L146.412 118.482C145.833 119.129 145.562 119.995 145.67 120.856L152.816 177.912C153.111 180.269 150.68 182.018 148.539 180.988L95.8112 155.631C94.9831 155.232 94.0181 155.236 93.1927 155.639L41.552 180.902C39.3963 181.957 36.9365 180.179 37.2613 177.801L45.2918 119.024C45.4225 118.067 45.0846 117.106 44.3839 116.441L1.12287 75.4104C-0.626766 73.7509 0.197283 70.8099 2.55444 70.3012L65.0501 56.8129C65.9639 56.6157 66.7335 56.0037 67.1316 55.1578L91.9221 2.47772Z" fill="#95989B"/>
</svg>
