<svg width="32" height="32" viewBox="0 0 32 32" fill="none" xmlns="http://www.w3.org/2000/svg">
<path d="M31 6V26C31 27.6569 29.6569 29 28 29H4C2.34315 29 1 27.6569 1 26V6C1 4.34315 2.34315 3 4 3H16H28C29.6569 3 31 4.34315 31 6Z" stroke="#969899" stroke-width="2"/>
<path d="M1 10H4H31" stroke="#969899" stroke-width="2"/>
<rect x="7" y="14" width="3" height="2" fill="#969899"/>
<rect x="22" y="14" width="3" height="2" fill="#969899"/>
<rect x="22" y="18" width="3" height="2" fill="#969899"/>
<rect x="22" y="22" width="3" height="2" fill="#969899"/>
<rect x="7" y="18" width="3" height="2" fill="#969899"/>
<rect x="7" y="22" width="3" height="2" fill="#969899"/>
<rect x="15" y="14" width="2" height="2" fill="#969899"/>
<rect x="15" y="18" width="2" height="2" fill="#969899"/>
<rect x="15" y="22" width="2" height="2" fill="#969899"/>
<rect x="14" y="14" width="1" height="2" fill="#969899"/>
<rect x="14" y="18" width="1" height="2" fill="#969899"/>
<rect x="14" y="22" width="1" height="2" fill="#969899"/>
<rect x="17" y="22" width="1" height="2" fill="#969899"/>
<rect x="17" y="18" width="1" height="2" fill="#969899"/>
<rect x="17" y="14" width="1" height="2" fill="#969899"/>
</svg>
