<svg width="24" height="24" viewBox="0 0 24 24" fill="none" xmlns="http://www.w3.org/2000/svg">
<path fill-rule="evenodd" clip-rule="evenodd" d="M3.94807 7.50057C2.36288 9.10438 1.47621 10.7797 1.19068 11.3709C1.0951 11.5668 1.04541 11.782 1.04541 12C1.04541 12.2176 1.09492 12.4324 1.19016 12.6281C1.48942 13.2488 2.45146 15.0647 4.18914 16.7382C5.93904 18.4234 8.51704 20 12.0001 20C14.9493 20 17.2494 18.8697 18.9474 17.5001L17.187 16.3265C15.8327 17.2886 14.1186 18 12.0001 18C9.17511 18 7.06911 16.7351 5.57651 15.2976C4.2642 14.0338 3.45827 12.6642 3.1126 12.0002C3.45885 11.3357 4.26501 9.96619 5.57726 8.70241C5.60089 8.67965 5.62468 8.65693 5.64862 8.63426L3.94807 7.50057ZM8.32484 10.4184C8.11581 10.9035 8 11.4382 8 12C8 14.2091 9.79086 16 12 16C13.1272 16 14.1455 15.5337 14.8726 14.7836L13.151 13.6358C12.8255 13.8653 12.4285 14 12 14C10.8954 14 10 13.1046 10 12C10 11.8512 10.0163 11.7061 10.0471 11.5666L8.32484 10.4184ZM11.4275 10.0831L9.55444 8.83444C10.2306 8.31131 11.0789 8 12 8C14.2091 8 16 9.79086 16 12C16 12.3599 15.9525 12.7086 15.8634 13.0404L13.9892 11.791C13.8847 10.7846 13.034 10 12 10C11.801 10 11.6089 10.0291 11.4275 10.0831ZM18.7532 14.967C19.8717 13.8016 20.5714 12.6067 20.8876 11.9998C20.5419 11.3358 19.736 9.96626 18.4236 8.70241C16.931 7.26493 14.825 6 12.0001 6C10.1346 6 8.58264 6.55179 7.31376 7.34066L5.51738 6.14307C7.16273 4.93942 9.31183 4 12.0001 4C15.4831 4 18.0611 5.57657 19.811 7.26184C21.5484 8.93504 22.5104 10.7505 22.8098 11.3716C22.9052 11.5673 22.9547 11.7822 22.9547 12C22.9547 12.218 22.9051 12.4332 22.8095 12.6291C22.5482 13.1702 21.7833 14.6198 20.4399 16.0914L18.7532 14.967Z" fill="#696B6D"/>
<path d="M2 5L23 19" stroke="#696B6D" stroke-width="1.25" stroke-linecap="round"/>
</svg>
