<svg width="24" height="24" viewBox="0 0 24 24" fill="none" xmlns="http://www.w3.org/2000/svg">
<path d="M12.0001 5C5.69308 5 2.63308 10.683 2.09008 11.808C2.06069 11.8677 2.04541 11.9334 2.04541 12C2.04541 12.0666 2.06069 12.1323 2.09008 12.192C2.63208 13.317 5.69208 19 12.0001 19C18.3081 19 21.3671 13.317 21.9101 12.192C21.9395 12.1323 21.9547 12.0666 21.9547 12C21.9547 11.9334 21.9395 11.8677 21.9101 11.808C21.3681 10.683 18.3081 5 12.0001 5Z" stroke="#696B6D" stroke-width="2" stroke-linecap="round" stroke-linejoin="round"/>
<path d="M12 15C13.6569 15 15 13.6569 15 12C15 10.3431 13.6569 9 12 9C10.3431 9 9 10.3431 9 12C9 13.6569 10.3431 15 12 15Z" stroke="#696B6D" stroke-width="2" stroke-linecap="round" stroke-linejoin="round"/>
</svg>
