<svg width="24" height="25" viewBox="0 0 24 25" fill="none" xmlns="http://www.w3.org/2000/svg">
<path d="M4.23901 3.36841V23C4.23901 23.5523 4.68673 24 5.23901 24H11.7716H18.3042C18.8565 24 19.3042 23.5523 19.3042 23V3.36841" stroke="black"/>
<mask id="path-2-inside-1_146_21" fill="white">
<path fill-rule="evenodd" clip-rule="evenodd" d="M16.4236 3.36841C16.2945 2.87154 15.9338 2.36742 15.3048 1.93233C14.5006 1.37605 13.3353 1 12 1C10.6647 1 9.49935 1.37605 8.69517 1.93233C8.06618 2.36742 7.70547 2.87154 7.57644 3.36841H6.55518C6.85798 1.4737 9.18019 0 12 0C14.8198 0 17.142 1.4737 17.4448 3.36841H16.4236ZM12.0144 7.57893H11.9856C11.9904 7.57894 11.9952 7.57895 12 7.57895C12.0048 7.57895 12.0096 7.57894 12.0144 7.57893Z"/>
</mask>
<path d="M16.4236 3.36841L15.4557 3.61975L15.6501 4.36841H16.4236V3.36841ZM15.3048 1.93233L14.7359 2.75474L14.7359 2.75474L15.3048 1.93233ZM8.69517 1.93233L8.12628 1.10991L8.12628 1.10991L8.69517 1.93233ZM7.57644 3.36841V4.36841H8.34994L8.54434 3.61975L7.57644 3.36841ZM6.55518 3.36841L5.56771 3.2106L5.38267 4.36841H6.55518V3.36841ZM17.4448 3.36841V4.36841H18.6173L18.4323 3.2106L17.4448 3.36841ZM12.0144 7.57893L12.0162 8.57893L12.0144 6.57893V7.57893ZM11.9856 7.57893V6.57893L11.9838 8.57893L11.9856 7.57893ZM17.3915 3.11707C17.1881 2.3341 16.6485 1.64583 15.8737 1.10991L14.7359 2.75474C15.2192 3.089 15.4009 3.40898 15.4557 3.61975L17.3915 3.11707ZM15.8737 1.10991C14.8825 0.424229 13.5129 0 12 0V2C13.1576 2 14.1188 2.32788 14.7359 2.75474L15.8737 1.10991ZM12 0C10.4871 0 9.11754 0.424229 8.12628 1.10991L9.26406 2.75474C9.88116 2.32788 10.8423 2 12 2V0ZM8.12628 1.10991C7.35153 1.64583 6.81186 2.3341 6.60854 3.11707L8.54434 3.61975C8.59907 3.40898 8.78083 3.089 9.26406 2.75474L8.12628 1.10991ZM6.55518 4.36841H7.57644V2.36841H6.55518V4.36841ZM12 -1C10.423 -1 8.95041 -0.589181 7.80468 0.125087C6.66632 0.834761 5.77753 1.89769 5.56771 3.2106L7.54265 3.52622C7.63563 2.94441 8.05934 2.32314 8.86274 1.82229C9.65877 1.32603 10.7572 1 12 1V-1ZM18.4323 3.2106C18.2225 1.89769 17.3337 0.834761 16.1953 0.125087C15.0496 -0.589181 13.577 -1 12 -1V1C13.2428 1 14.3412 1.32603 15.1373 1.82229C15.9407 2.32314 16.3644 2.94441 16.4574 3.52622L18.4323 3.2106ZM16.4236 4.36841H17.4448V2.36841H16.4236V4.36841ZM12.0144 6.57893H11.9856V8.57893H12.0144V6.57893ZM11.9838 8.57893C11.9892 8.57894 11.9946 8.57895 12 8.57895V6.57895C11.9958 6.57895 11.9916 6.57894 11.9873 6.57894L11.9838 8.57893ZM12 8.57895C12.0054 8.57895 12.0108 8.57894 12.0162 8.57893L12.0126 6.57894C12.0084 6.57894 12.0042 6.57895 12 6.57895V8.57895Z" fill="black" mask="url(#path-2-inside-1_146_21)"/>
<path d="M8.3479 9.26318V20.2106" stroke="black" stroke-width="1.5"/>
<path d="M15.6521 9.26318V20.2106" stroke="black" stroke-width="1.5"/>
<path d="M12 9.26318V20.2106" stroke="black" stroke-width="1.5"/>
<path d="M1.5 3.36841H22.5" stroke="black" stroke-width="1.5"/>
</svg>
