<svg width="182" height="182" viewBox="0 0 182 182" fill="none" xmlns="http://www.w3.org/2000/svg">
<path d="M71.0938 9.85811C58.5813 14.2185 48.5334 20.7592 39.2438 30.4279C29.3855 40.855 24.4563 49.3862 20.2855 63.2258C18.0105 70.5248 17.7261 73.2737 17.6313 84.8383C17.6313 95.9289 17.9157 99.3414 19.7168 105.692C27.5845 133.372 49.0074 154.795 76.3074 162.188C82.1845 163.8 86.6397 164.274 96.2136 164.274C111.38 164.369 118.205 162.852 131.287 156.406C142.377 151.003 149.961 145.126 157.639 136.026C162.947 129.675 170.815 115.361 172.142 109.579L172.805 106.83L168.35 109.863C142.851 127.495 109.958 126.357 85.6918 107.02C67.2074 92.3269 57.3491 65.6904 61.7095 42.0873C63.3209 33.1769 67.9657 22.3706 73.4636 14.6925C76.3074 10.806 78.298 7.58311 77.9188 7.6779C77.5397 7.6779 74.5063 8.62582 71.0938 9.85811Z" fill="#A4BDDF"/>
</svg>
