<svg width="42" height="32" viewBox="0 0 42 32" fill="none" xmlns="http://www.w3.org/2000/svg">
<path d="M11.5 5V27.5C11.5 28.0523 11.9477 28.5 12.5 28.5H19.5H27C27.5523 28.5 28 28.0523 28 27.5V5" stroke="#B4B5B6"/>
<mask id="path-2-inside-1_144_32" fill="white">
<path fill-rule="evenodd" clip-rule="evenodd" d="M25.9851 5C25.5927 2.88317 23.2424 1 20 1C16.7576 1 14.4073 2.88317 14.015 5H13C13.3893 2.18753 16.3748 0 20 0C23.6252 0 26.6107 2.18753 27 5H25.9851Z"/>
</mask>
<path d="M25.985 5L25.0018 5.18225L25.1534 6H25.985V5ZM14.015 5V6H14.8466L14.9982 5.18225L14.015 5ZM13 5L12.0094 4.8629L11.8521 6H13V5ZM27 5V6H28.1479L27.9906 4.8629L27 5ZM26.9683 4.81775C26.4643 2.0986 23.5808 0 20 0V2C22.9041 2 24.7211 3.66774 25.0018 5.18225L26.9683 4.81775ZM20 0C16.4192 0 13.5357 2.0986 13.0317 4.81775L14.9982 5.18225C15.2789 3.66774 17.0959 2 20 2V0ZM13 6H14.015V4H13V6ZM20 -1C16.048 -1 12.4884 1.40227 12.0094 4.8629L13.9906 5.1371C14.2901 2.9728 16.7016 1 20 1V-1ZM27.9906 4.8629C27.5116 1.40227 23.952 -1 20 -1V1C23.2984 1 25.7099 2.9728 26.0094 5.1371L27.9906 4.8629ZM25.985 6H27V4H25.985V6Z" fill="#B4B5B6" mask="url(#path-2-inside-1_144_32)"/>
<path d="M16 11V24" stroke="#B4B5B6" stroke-width="1.5"/>
<path d="M24 11V24" stroke="#B4B5B6" stroke-width="1.5"/>
<path d="M20 11V24" stroke="#B4B5B6" stroke-width="1.5"/>
<path d="M8 5H32" stroke="#B4B5B6" stroke-width="1.5"/>
</svg>
